<svg width="37" height="37" viewBox="0 0 37 37" fill="none" xmlns="http://www.w3.org/2000/svg">
<path d="M36.121 15.4482L34.3402 13.6671C33.7231 13.0813 33.0024 12.7883 32.1796 12.7883C31.3399 12.7883 30.6278 13.0812 30.0419 13.6671L23.06 20.6491V3.9306C23.06 3.10712 22.7588 2.39477 22.157 1.79313C21.5553 1.19157 20.8431 0.890625 20.0199 0.890625H16.9801C16.1569 0.890625 15.4443 1.19182 14.843 1.79313C14.2411 2.39477 13.9405 3.10712 13.9405 3.9306V20.6491L6.95841 13.6671C6.37266 13.0813 5.66031 12.7883 4.82094 12.7883C3.99779 12.7883 3.2772 13.0812 2.66001 13.6671L0.902585 15.4482C0.300695 16.0493 0 16.7703 0 17.6091C0 18.4644 0.301028 19.1769 0.902336 19.7467L16.3625 35.2303C16.9485 35.8164 17.6608 36.1092 18.5 36.1092C19.3232 36.1092 20.0436 35.8164 20.6607 35.2303L36.121 19.7467C36.7068 19.1608 36.9999 18.4484 36.9999 17.6091C37 16.7861 36.7069 16.0657 36.121 15.4482Z" fill="white"/>
</svg>
