<svg width="35" height="31" viewBox="0 0 35 31" fill="none" xmlns="http://www.w3.org/2000/svg">
<path d="M34.9402 17.3806C34.3212 11.1332 28.6994 6.56364 22.4214 6.56364H13.1247V1.095C13.1247 0.675014 12.8841 0.292209 12.5057 0.108463C12.1251 -0.0730959 11.6766 -0.024972 11.3485 0.23971L0.411242 8.98953C0.150934 9.19953 0 9.51233 0 9.84482C0 10.1773 0.150934 10.4901 0.409054 10.7001L11.3463 19.4499C11.5454 19.6074 11.7882 19.6884 12.031 19.6884C12.1929 19.6884 12.3547 19.6534 12.5057 19.5812C12.8841 19.3974 13.1247 19.0146 13.1247 18.5946V13.126H22.6533C25.5145 13.126 28.1219 15.1822 28.4085 18.0281C28.7388 21.3005 26.1729 24.0633 22.9683 24.0633H14.2185C13.6147 24.0633 13.1247 24.5533 13.1247 25.157V29.5319C13.1247 30.1357 13.6147 30.6256 14.2185 30.6256H22.9683C29.9966 30.6256 35.6468 24.5511 34.9402 17.3806Z" fill="white"/>
</svg>
