<svg width="46" height="28" viewBox="0 0 46 28" fill="none" xmlns="http://www.w3.org/2000/svg">
<path d="M23 0.289795C14.2112 0.289795 6.24108 5.09822 0.359926 12.9084C-0.119975 13.5483 -0.119975 14.4422 0.359926 15.0821C6.24108 22.9016 14.2112 27.7101 23 27.7101C31.7888 27.7101 39.7589 22.9016 45.6401 15.0915C46.12 14.4516 46.12 13.5577 45.6401 12.9178C39.7589 5.09822 31.7888 0.289795 23 0.289795ZM23.6305 23.6544C17.7964 24.0214 12.9785 19.213 13.3455 13.3695C13.6466 8.55163 17.5517 4.64655 22.3695 4.34544C28.2036 3.97845 33.0215 8.78688 32.6545 14.6304C32.344 19.4388 28.4389 23.3439 23.6305 23.6544ZM23.3388 19.1942C20.1959 19.3918 17.5988 16.8041 17.8058 13.6612C17.9657 11.0641 20.0735 8.96567 22.6707 8.79629C25.8135 8.59868 28.4107 11.1864 28.2036 14.3293C28.0343 16.9358 25.9265 19.0342 23.3388 19.1942Z" fill="white"/>
</svg>
