<svg width="34" height="34" viewBox="0 0 34 34" fill="none" xmlns="http://www.w3.org/2000/svg">
<path d="M24.9688 1.99219C23.1238 1.99219 21.4323 2.57683 19.9413 3.72991C18.5119 4.83537 17.5603 6.24338 17 7.26723C16.4397 6.24332 15.4881 4.83537 14.0587 3.72991C12.5677 2.57683 10.8762 1.99219 9.03125 1.99219C3.88264 1.99219 0 6.20347 0 11.788C0 17.8213 4.84387 21.9492 12.1768 28.1982C13.4221 29.2595 14.8336 30.4623 16.3006 31.7452C16.494 31.9146 16.7423 32.0078 17 32.0078C17.2577 32.0078 17.506 31.9146 17.6994 31.7453C19.1666 30.4622 20.578 29.2594 21.8239 28.1976C29.1561 21.9492 34 17.8213 34 11.788C34 6.20347 30.1174 1.99219 24.9688 1.99219Z" fill="white"/>
</svg>
