<svg width="36" height="36" viewBox="0 0 36 36" fill="none" xmlns="http://www.w3.org/2000/svg">
<path d="M32.6073 3.39268C28.0836 -1.13094 20.7235 -1.13087 16.1999 3.39275C13.11 6.48263 12.0368 11.0361 13.3747 15.1673L0.309024 28.233C0.111235 28.4308 0 28.6985 0 28.9787V34.9453C0 35.5283 0.471727 36 1.05469 36H7.02128C7.30141 36 7.56923 35.8888 7.76695 35.691L9.25835 34.1985C9.48595 33.9709 9.59718 33.6516 9.56013 33.3313L9.37471 31.7287L11.5953 31.5196C12.1 31.4722 12.4986 31.0736 12.546 30.5689L12.7551 28.3482L14.3578 28.5346C14.6554 28.5748 14.9551 28.4749 15.1807 28.2751C15.4052 28.0743 15.534 27.7879 15.534 27.4872V25.5234H17.4621C17.7422 25.5234 18.01 25.4122 18.2077 25.2144L20.9125 22.5455C25.0426 23.8845 29.5174 22.8921 32.6073 19.8001C37.1309 15.2765 37.1309 7.9163 32.6073 3.39268ZM29.6236 10.8507C28.3896 12.0846 26.3833 12.0846 25.1494 10.8507C23.9154 9.61681 23.9154 7.61044 25.1494 6.37653C26.3833 5.14262 28.3896 5.14262 29.6236 6.37653C30.8575 7.61044 30.8574 9.61681 29.6236 10.8507Z" fill="#C4C4C4"/>
</svg>
