<svg width="20" height="25" viewBox="0 0 20 25" fill="none" xmlns="http://www.w3.org/2000/svg">
<path fill-rule="evenodd" clip-rule="evenodd" d="M15.6137 5.6887C15.6137 8.83049 13.0668 11.3774 9.92503 11.3774C6.78325 11.3774 4.23633 8.83049 4.23633 5.6887C4.23633 2.54692 6.78325 0 9.92503 0C13.0668 0 15.6137 2.54692 15.6137 5.6887ZM9.92503 9.31979C11.9304 9.31979 13.5561 7.6941 13.5561 5.6887C13.5561 3.68331 11.9304 2.05762 9.92503 2.05762C7.91964 2.05762 6.29394 3.68331 6.29394 5.6887C6.29394 7.6941 7.91964 9.31979 9.92503 9.31979Z" fill="#C4C4C4"/>
<path fill-rule="evenodd" clip-rule="evenodd" d="M5.08352 13.9192H14.7664C17.574 13.9192 19.8499 16.1951 19.8499 19.0027C19.8499 21.8102 17.574 24.0862 14.7664 24.0862H5.08352C2.27597 24.0862 0 21.8102 0 19.0027C0 16.1951 2.27597 13.9192 5.08352 13.9192ZM5.08352 15.9768C3.41236 15.9768 2.05762 17.3315 2.05762 19.0027C2.05762 20.6739 3.41236 22.0286 5.08352 22.0286H14.7664C16.4376 22.0286 17.7923 20.6739 17.7923 19.0027C17.7923 17.3315 16.4376 15.9768 14.7664 15.9768H5.08352Z" fill="#C4C4C4"/>
</svg>
