<svg width="24" height="24" viewBox="0 0 24 24" fill="none" xmlns="http://www.w3.org/2000/svg">
<path fill-rule="evenodd" clip-rule="evenodd" d="M9.65309 16.732C13.5627 16.732 16.732 13.5627 16.732 9.65309C16.732 5.7435 13.5627 2.57416 9.65309 2.57416C5.7435 2.57416 2.57416 5.7435 2.57416 9.65309C2.57416 13.5627 5.7435 16.732 9.65309 16.732ZM9.65309 19.3062C14.9843 19.3062 19.3062 14.9843 19.3062 9.65309C19.3062 4.32184 14.9843 0 9.65309 0C4.32184 0 0 4.32184 0 9.65309C0 14.9843 4.32184 19.3062 9.65309 19.3062Z" fill="#C4C4C4"/>
<path fill-rule="evenodd" clip-rule="evenodd" d="M21.391 23.1304L15.2417 16.981L16.981 15.2417L23.1303 21.3911C23.6106 21.8714 23.6106 22.6501 23.1303 23.1304C22.65 23.6106 21.8713 23.6106 21.391 23.1304Z" fill="#C4C4C4"/>
</svg>
