<svg width="46" height="39" viewBox="0 0 46 39" fill="none" xmlns="http://www.w3.org/2000/svg">
<path d="M23 5.28973C14.2112 5.28973 6.24108 10.0982 0.359926 17.9083C-0.119975 18.5482 -0.119975 19.4421 0.359926 20.082C6.24108 27.9016 14.2112 32.71 23 32.71C31.7888 32.71 39.7589 27.9016 45.6401 20.0914C46.12 19.4515 46.12 18.5576 45.6401 17.9177C39.7589 10.0982 31.7888 5.28973 23 5.28973ZM23.6305 28.6544C17.7964 29.0213 12.9785 24.2129 13.3455 18.3694C13.6466 13.5516 17.5517 9.64649 22.3695 9.34537C28.2036 8.97839 33.0215 13.7868 32.6545 19.6303C32.344 24.4388 28.4389 28.3438 23.6305 28.6544ZM23.3388 24.1941C20.1959 24.3917 17.5988 21.804 17.8058 18.6611C17.9657 16.064 20.0735 13.9656 22.6707 13.7962C25.8135 13.5986 28.4107 16.1863 28.2036 19.3292C28.0343 21.9357 25.9265 24.0341 23.3388 24.1941Z" fill="white"/>
<rect x="10" y="36.0427" width="44" height="4" transform="rotate(-55 10 36.0427)" fill="white"/>
</svg>
